<svg width="151" height="41" viewBox="0 0 151 41" fill="none" xmlns="http://www.w3.org/2000/svg">
<rect width="41" height="41" rx="3" fill="white"/>
<path fill-rule="evenodd" clip-rule="evenodd" d="M17.5848 38.2843L17.3623 15.9299L30.3782 19.9398L31.6732 35.2719C28.4997 37.3239 24.7175 38.5152 20.6571 38.5152C19.6127 38.5152 18.5867 38.4363 17.5848 38.2843Z" fill="#DC7E3F"/>
<path fill-rule="evenodd" clip-rule="evenodd" d="M17.5847 38.2844C14.8127 37.8639 12.2246 36.8832 9.93945 35.4614L10.6218 22.5345L17.3622 15.9299L17.5847 38.2844Z" fill="#B24A32"/>
<path d="M17.3621 15.4581L30.6104 19.7039L30.378 19.9398L17.3621 15.9299V15.4581Z" fill="#783C13"/>
<path d="M10.3889 22.2985L17.3617 15.4581V15.9299L10.6213 22.5344L10.3889 22.2985Z" fill="#732A1A"/>
<path d="M10.3889 21.8268L17.3617 14.9863V15.4581L10.3889 22.2985V21.8268Z" fill="#B24A32"/>
<path d="M17.3621 14.9863L30.6104 19.2321V19.7039L17.3621 15.4581V14.9863Z" fill="#DC7E3F"/>
<path d="M10.8542 19.9398L17.3622 13.3352V14.9863L10.8542 21.355V19.9398Z" fill="#D26A52"/>
<path d="M17.3621 13.3352L29.6807 17.581L29.9131 18.9963L17.3621 14.9863V13.3352Z" fill="#E79259"/>
<path d="M18.0593 11.2123L27.3564 14.5146L27.5888 16.8734L18.0593 13.5711V11.2123Z" fill="#E79259"/>
<path d="M12.946 16.4016L18.0594 11.2123V13.5711L17.3622 13.3352L12.946 17.8169V16.4016Z" fill="#D26A51"/>
<path d="M13.6431 14.0428L18.0592 9.56116V11.2123L13.6431 15.694V14.0428Z" fill="#D26A51"/>
<path d="M18.0593 9.56116L25.497 12.3917V13.8645L18.0593 11.2123V9.56116Z" fill="#E79259"/>
<path d="M15.9675 6.49473L18.0594 4.13596V9.56114L15.7351 11.9199L15.9675 6.49473Z" fill="#D26A51"/>
<path d="M19.4539 4.84363L23.87 6.25889L24.1024 11.92L19.2214 10.0329L19.4539 4.84363Z" fill="#E79259"/>
<path d="M19.9187 4.13596L24.3348 5.7871L23.87 6.25885L19.4539 4.84359L19.9187 4.13596Z" fill="#E79259"/>
<path d="M19.9189 3.66422L23.6378 5.07948V5.55123L19.9189 4.13597V3.66422Z" fill="#E79259"/>
<path d="M19.9189 2.95657L24.1026 4.60772L23.6378 5.07947L19.9189 3.66421V2.95657Z" fill="#E79259"/>
<path d="M19.9189 2.48486L22.7081 3.66425V4.13601L19.9189 2.95662V2.48486Z" fill="#E79259"/>
<path d="M15.5027 6.25887L18.0594 3.42834V4.13598L15.9675 6.49475L15.5027 6.25887Z" fill="#D26A51"/>
<path d="M16.897 4.13596L18.0591 2.95657V3.42833L16.897 4.84359V4.13596Z" fill="#D26A51"/>
<path d="M23.8699 10.5047L25.9618 12.1559L25.4969 12.3917L22.2429 11.2124L23.8699 10.5047Z" fill="#E79259"/>
<path d="M15.2701 11.2123L16.1998 11.4482L13.6431 14.2787L13.1782 14.0429L15.2701 11.2123Z" fill="#D26A51"/>
<ellipse rx="0.592424" ry="1.45313" transform="matrix(0.964511 0.264044 -0.256889 0.966441 14.8822 14.3218)" fill="#B24A32"/>
<ellipse rx="1.14092" ry="1.52336" transform="matrix(0.805344 -0.592807 0.581469 0.813568 23.4328 12.9179)" fill="#783C13"/>
<ellipse rx="1.14092" ry="1.52336" transform="matrix(0.805344 -0.592807 0.581469 0.813568 23.5829 12.6562)" fill="#FFF4F4"/>
<ellipse rx="1.14092" ry="1.52336" transform="matrix(0.805344 -0.592807 0.581469 0.813568 23.5829 12.6562)" fill="#FFF4F4"/>
<path d="M18.0593 2.95662L18.2918 2.72074L18.7566 2.95662H19.4539L19.9187 2.48486V4.13601L19.2215 10.0329L18.0593 9.56119V2.95662Z" fill="#E79259"/>
<path d="M60.0246 16.6867L48.7136 20.4666L60.0246 24.4276L71.3355 20.4666L60.0246 16.6867Z" fill="#B99B4A"/>
<path d="M51.2411 13.8308V5.99288H48.7778V4.04459H55.6932V5.99288H53.2525V13.8308H51.2411Z" fill="white"/>
<path d="M62.1338 13.831V9.91202H59.1733V13.831H57.1846V3.99997H59.1733V7.91894H62.1338V3.99997H64.1225V13.8086H62.1338V13.831Z" fill="white"/>
<path d="M66.3147 13.831V3.99997H71.5125V5.97065H68.3034V7.94134H70.9023V9.91202H68.3034V11.8827H71.5125V13.8534L66.3147 13.831Z" fill="white"/>
<path d="M83.5132 24.1323L75.3323 3.99997H79.8295L83.8522 14.1221L87.7618 4.20152H87.9426L91.8523 14.1221L95.875 3.99997H100.372L92.2139 24.1323H91.4907L87.8522 15.3986L84.2364 24.1547L83.5132 24.1323Z" fill="white"/>
<path d="M103.581 24.1322V4.02222H113.728V8.03077H107.626V12.0393H112.959V16.0479H107.626V20.0564H114.067V24.065L103.581 24.1322Z" fill="white"/>
<path d="M118.202 3.99997H126.248C129.864 3.99997 132.101 6.5529 132.01 10.1136C131.943 11.6364 131.423 13.204 130.135 14.0997C131.468 14.9955 132.236 16.5407 132.236 18.1083C132.236 21.4674 129.525 24.1547 126.248 24.1547H118.202V3.99997ZM122.27 12.0843H124.711H125.864C127.016 12.0843 127.739 11.1661 127.739 10.0464C127.739 8.92668 127.016 8.00852 125.864 8.00852H122.248V12.0843H122.27ZM122.27 20.1461H124.711H125.864C127.016 20.1461 127.92 19.2504 127.92 18.1083C127.92 16.9662 127.039 16.1152 125.864 16.1152H122.248V20.1461H122.27Z" fill="white"/>
<path d="M53.8625 29.5962C49.885 29.5962 49.885 35.6426 53.8625 35.6426C54.7212 35.6426 55.4218 35.3963 55.806 35.1947L56.0772 37.255C55.467 37.5013 54.5856 37.6805 53.8851 37.6805C47.0827 37.6805 47.1053 27.6031 53.8851 27.6031C54.5856 27.6031 55.2636 27.7375 55.8738 28.0062L55.6478 30.0665C55.241 29.8425 54.7438 29.5962 53.8625 29.5962Z" fill="white"/>
<path d="M62.4729 27.5583C69.3883 27.5583 69.3883 37.7924 62.4729 37.7924C55.6028 37.7924 55.6028 27.5583 62.4729 27.5583ZM62.4729 29.5962C58.4503 29.5962 58.4503 35.7322 62.4729 35.7322C66.4956 35.7546 66.4956 29.5962 62.4729 29.5962Z" fill="white"/>
<path d="M71.535 37.6581H69.5237V27.5359H70.0435L75.1057 33.3808V27.7823H77.1396V37.882H76.6198L71.5576 32.2835L71.535 37.6581Z" fill="white"/>
<path d="M81.4113 29.7306V31.7237H83.9651V33.7168H81.4113V37.7029H79.4226V27.7599H84.4171V29.753L81.4113 29.7306Z" fill="white"/>
<path d="M86.0667 37.6583V27.7153H91.0836V29.7084H88.078V31.7014H90.7221V33.6945H88.078V35.6876H91.2418V37.6807L86.0667 37.6583Z" fill="white"/>
<path d="M98.1115 37.6583L96.0776 33.8737H95.1058V37.6583H93.0945V27.7153H97.0493C100.62 27.7153 100.982 32.6868 98.0211 33.5601L100.349 37.6583H98.1115ZM95.1284 31.9478H96.8911C98.2471 31.9478 98.2471 29.7307 96.8911 29.7307H95.1284V31.9478Z" fill="white"/>
<path d="M101.705 37.6583V27.7153H106.722V29.7084H103.694V31.7014H106.338V33.6945H103.694V35.6876H106.88V37.6807L101.705 37.6583Z" fill="white"/>
<path d="M110.79 37.6581H108.779V27.5359H109.299L114.361 33.3808V27.7823H116.395V37.882H115.875L110.813 32.2835L110.79 37.6581Z" fill="white"/>
<path d="M123.287 29.5962C119.31 29.5962 119.31 35.6426 123.287 35.6426C124.146 35.6426 124.847 35.3963 125.231 35.1947L125.502 37.255C124.892 37.5013 124.011 37.6805 123.31 37.6805C116.508 37.6805 116.53 27.6031 123.31 27.6031C124.011 27.6031 124.689 27.7375 125.299 28.0062L125.073 30.0665C124.643 29.8425 124.146 29.5962 123.287 29.5962Z" fill="white"/>
<path d="M127.062 37.6583V27.7153H132.26V29.7084H129.073V31.7014H131.717V33.6945H129.073V35.6876H132.26V37.6807L127.062 37.6583Z" fill="white"/>
<path d="M138.129 6.81392L139.466 7.29831V11.3985L138.129 11.9002V14.6855L151 9.47813V9.21863L138.129 4.01129V6.81392ZM141.834 10.4158V8.08689L145.149 9.26899L141.834 10.4158ZM138.226 21.9869C138.226 22.8447 138.433 23.9255 138.742 24.6804L141.287 24.3544C141.046 23.8912 140.736 23.0506 140.736 21.9869C140.736 17.1318 148.232 17.1318 148.232 21.9869C148.232 23.0506 147.94 23.651 147.699 24.1143L150.226 24.4059C150.553 23.6682 150.707 22.8447 150.707 21.9869C150.707 13.6835 138.226 13.6663 138.226 21.9869ZM138.226 29.113H145.086L141.785 32.258L145.086 35.4029L138.226 35.3857V37.8776H150.707V37.1042L145.309 32.258L150.707 27.4117V26.6212H138.226V29.113Z" fill="#B99B4A"/>
</svg>
